<?xml version="1.0" standalone="no"?>
<!DOCTYPE svg PUBLIC "-//W3C//DTD SVG 20010904//EN"
 "http://www.w3.org/TR/2001/REC-SVG-20010904/DTD/svg10.dtd">
<svg version="1.0" xmlns="http://www.w3.org/2000/svg"
 width="200.000000pt" height="200.000000pt" viewBox="0 0 200.000000 200.000000"
 preserveAspectRatio="xMidYMid meet">
<metadata>
Created by potrace 1.11, written by Peter Selinger 2001-2013
</metadata>
<g transform="translate(0.000000,200.000000) scale(0.100000,-0.100000)"
fill="#000000" stroke="none">
<path d="M899 1996 c-2 -2 -29 -7 -59 -10 -79 -10 -247 -69 -332 -116 -303
-172 -496 -492 -503 -835 -4 -149 10 -239 59 -390 2 -5 4 -13 5 -18 3 -21 69
-141 113 -204 61 -89 186 -209 276 -267 79 -51 210 -107 307 -132 54 -14 108
-18 235 -19 193 0 273 17 429 91 121 57 198 113 291 210 119 125 176 221 228
384 40 124 51 209 47 345 -8 262 -110 496 -294 676 -190 184 -406 276 -672
284 -70 2 -128 2 -130 1z"/>
</g>
</svg>
